<?xml version="1.0" encoding="utf-8"?>
<?xml-stylesheet type="text/xsl" href="rss1.xsl"?>
<rss version="2.0" xmlns:atom="http://www.w3.org/2005/Atom" xmlns:content="http://purl.org/rss/1.0/modules/content/" xmlns:dc="http://purl.org/dc/elements/1.1/" xmlns:media="http://search.yahoo.com/mrss/">
<channel>
 <title>Getty</title>
 <link>http://www.gettyimg.com/</link>
 <atom:link href="http://www.gettyimg.com/" rel="self" type="application/rss+xml" />

 
                <item>
                <title><![CDATA[【SD】DVD - Nacash - Elle Imagine [VOB]]]></title>
                <link><![CDATA[https://sharemania.us/threads/nacash-elle-imagine-vob.238803/]]></link>
                <description><![CDATA[<article>
<blockquote class="messageText SelectQuoteContainer ugc baseHtml">
Request By <a href="https://sharemania.us/members/54987/" class="username" data-user="54987, @Artik">@Artik</a> <br>
<br>
<img src="https://i.imgur.com/DZJKQWZ.jpeg" class="bbCodeImage LbImage" alt="[​IMG]" data-url="https://i.imgur.com/DZJKQWZ.jpeg" style=""> <br>
<br>
<div class="bbCodeBlock bbCodeCode">
<div class="type">Code:</div>
<pre>Format                         : MPEG-PS
File size                      : 148 MiB
Duration                       : 4mn 4s
Overall bit rate mode          : Variable
Overall bit rate               : 5 093 Kbps
Writing library                : http://vip-files.net

Video
ID                             : 224 (0xE0)
Format                         : MPEG Video
Format version                 : Version 2
Format profile                 : Main@Main
Format settings, BVOP          : No
Format settings, Matrix        : Custom
Format settings, GOP           : Variable
Duration                       : 4mn 4s
Bit rate mode                  : Variable
Bit rate                       : 4 735 Kbps
Maximum bit rate               : 8 260 Kbps
Width                          : 720 pixels
Height                         : 576 pixels
Display aspect ratio           : 4:3
Frame rate                     : 25.000 fps
Standard                       : PAL
Color space                    : YUV
Chroma subsampling             : 4:2:0
Bit depth                      : 8 bits
Scan type                      : Interlaced
Scan order                     : Top Field First
Compression mode               : Lossy
Bits/(Pixel*Frame)             : 0.457
Time code of first frame       : 00:00:00:00
Time code source               : Group of pictures header
Stream size                    : 138 MiB (93%)
Source encoded stream size     : http://vip-files.net
Writing library                : http://vip-files.net

Audio
ID                             : 189 (0xBD)-128 (0x80)
Format                         : AC-3
Format/Info                    : Audio Coding 3
Mode extension                 : CM (complete main)
Format settings, Endianness    : Big
Muxing mode                    : DVD-Video
Duration                       : 4mn 4s
Bit rate mode                  : Constant
Bit rate                       : 256 Kbps
Channel(s)                     : 2 channels
Channel positions              : Front: L R
Sampling rate                  : 48.0 KHz
Bit depth                      : 16 bits
Compression mode               : Lossy
Stream size                    : 7.46 MiB (5%)</pre>
</div>
<div class="bbCodeBlock bbCodeVfcHH HiddenContent">
<div class="attribution type">Hidden Content:</div>
<blockquote>You must reply before you can see the hidden data contained here.</blockquote>
</div>
<div class="messageTextEndMarker">&nbsp;</div>
</blockquote>
</article>]]></description>
                <author><![CDATA[markitomg]]></author>
                </item>

                
                <item>
                <title><![CDATA[【Singles (lossless)】FLAC - Noah Kahan &amp; Kacey Musgraves - She Calls Me Back | Qobuz Hi-Res 24bit / 96.0kHz]]></title>
                <link><![CDATA[https://sharemania.us/threads/noah-kahan-kacey-musgraves-she-calls-me-back-qobuz-hi-res-24bit-96-0khz.238799/]]></link>
                <description><![CDATA[<article>
<blockquote class="messageText SelectQuoteContainer ugc baseHtml">
<div style="text-align: center"><img src="https://static.qobuz.com/images/covers/6b/i0/cebs44buyi06b_600.jpg" class="bbCodeImage LbImage" alt="[​IMG]" data-url="https://static.qobuz.com/images/covers/6b/i0/cebs44buyi06b_600.jpg" style=""><br>
<div class="bbCodeBlock bbCodeVfcHH HiddenContent">
<div class="attribution type">Hidden Content:</div>
<blockquote>You must reply before you can see the hidden data contained here.</blockquote>
</div></div>
<div class="messageTextEndMarker">&nbsp;</div>
</blockquote>
</article>]]></description>
                <author><![CDATA[Yennefer]]></author>
                </item>

                
                <item>
                <title><![CDATA[【SD】DVD - Phil Barney - Un Seul Enfant De Toi [VOB]]]></title>
                <link><![CDATA[https://sharemania.us/threads/phil-barney-un-seul-enfant-de-toi-vob.238800/]]></link>
                <description><![CDATA[<article>
<blockquote class="messageText SelectQuoteContainer ugc baseHtml">
Request <a href="https://sharemania.us/members/54987/" class="username" data-user="54987, @Artik">@Artik</a> <br>
<br>
<img src="https://i.imgur.com/wwT1KLR.jpeg" class="bbCodeImage LbImage" alt="[​IMG]" data-url="https://i.imgur.com/wwT1KLR.jpeg" style=""> <br>
<div class="bbCodeBlock bbCodeCode">
<div class="type">Code:</div>
<pre>Format                         : MPEG-PS
File size                      : 135 MiB
Duration                       : 3mn 43s
Overall bit rate mode          : Variable
Overall bit rate               : 5 083 Kbps
Writing library                : http://vip-files.net

Video
ID                             : 224 (0xE0)
Format                         : MPEG Video
Format version                 : Version 2
Format profile                 : Main@Main
Format settings, BVOP          : No
Format settings, Matrix        : Custom
Format settings, GOP           : Variable
Duration                       : 3mn 43s
Bit rate mode                  : Variable
Bit rate                       : 4 726 Kbps
Maximum bit rate               : 8 260 Kbps
Width                          : 720 pixels
Height                         : 576 pixels
Display aspect ratio           : 4:3
Frame rate                     : 25.000 fps
Standard                       : PAL
Color space                    : YUV
Chroma subsampling             : 4:2:0
Bit depth                      : 8 bits
Scan type                      : Interlaced
Scan order                     : Top Field First
Compression mode               : Lossy
Bits/(Pixel*Frame)             : 0.456
Time code of first frame       : 00:00:00:00
Time code source               : Group of pictures header
Stream size                    : 126 MiB (93%)
Source encoded stream size     : http://vip-files.net
Writing library                : http://vip-files.net

Audio
ID                             : 189 (0xBD)-128 (0x80)
Format                         : AC-3
Format/Info                    : Audio Coding 3
Mode extension                 : CM (complete main)
Format settings, Endianness    : Big
Muxing mode                    : DVD-Video
Duration                       : 3mn 43s
Bit rate mode                  : Constant
Bit rate                       : 256 Kbps
Channel(s)                     : 2 channels
Channel positions              : Front: L R
Sampling rate                  : 48.0 KHz
Bit depth                      : 16 bits
Compression mode               : Lossy
Stream size                    : 6.81 MiB (5%)</pre>
</div>
<div class="bbCodeBlock bbCodeVfcHH HiddenContent">
<div class="attribution type">Hidden Content:</div>
<blockquote>You must reply before you can see the hidden data contained here.</blockquote>
</div>
<div class="messageTextEndMarker">&nbsp;</div>
</blockquote>
</article>]]></description>
                <author><![CDATA[markitomg]]></author>
                </item>

                
                <item>
                <title><![CDATA[【Albums (lossless)】FLAC - Hans Zimmer - Dune (All 2021 OST )]]></title>
                <link><![CDATA[https://sharemania.us/threads/hans-zimmer-dune-all-2021-ost.238801/]]></link>
                <description><![CDATA[<article>
<blockquote class="messageText SelectQuoteContainer ugc baseHtml">
<div style="text-align: center"><b><span style="font-size: 26px"><span style="color: #b35900"><img src="https://i.imgur.com/yC9kyka.jpeg" class="bbCodeImage LbImage" alt="[​IMG]" data-url="https://i.imgur.com/yC9kyka.jpeg" style=""> <br>
<img src="https://upload.wikimedia.org/wikipedia/commons/thumb/0/08/Dune_2021_logo.png/800px-Dune_2021_logo.png" class="bbCodeImage LbImage" alt="[​IMG]" data-url="https://upload.wikimedia.org/wikipedia/commons/thumb/0/08/Dune_2021_logo.png/800px-Dune_2021_logo.png" style=""> <br>
DUNE (All 2021 OST)</span></span></b>​</div><ul>
<li><span style="font-size: 15px"><span style="color: #663300">Eclipse (From Dune: Original Motion Picture Soundtrack) [Trailer Version]</span></span></li>
<li><span style="font-size: 15px"><span style="color: #663300">The Dune Sketchbook (Music from the Soundtrack)</span></span></li>
<li><span style="font-size: 15px"><span style="color: #663300">Dune (Original Motion Picture Soundtrack)</span></span></li>
<li><span style="font-size: 15px"><span style="color: #663300">The Art and Soul of Dune (Companion Book Music)</span></span></li>
</ul><div style="text-align: center"><span style="font-size: 15px"><span style="color: #663300">-----------------------------------------------------------------------------------------------------------------------------------------<br>
<div class="bbCodeBlock bbCodeVfcHH HiddenContent">
<div class="attribution type">Hidden Content:</div>
<blockquote>You must either reply or click 'Like' to see the hidden information contained here.</blockquote>
</div></span></span>
<div class="bbCodeBlock bbCodeVfcHH HiddenContent">
<div class="attribution type">Hidden Content:</div>
<blockquote>You must either reply or click 'Like' to see the hidden information contained here.</blockquote>
</div></div>
<div class="messageTextEndMarker">&nbsp;</div>
</blockquote>
</article>]]></description>
                <author><![CDATA[huypvz]]></author>
                </item>

                
                <item>
                <title><![CDATA[【SD】DVD - Stephanie - Irresistible (From Formel Eins) [VOB]]]></title>
                <link><![CDATA[https://sharemania.us/threads/stephanie-irresistible-from-formel-eins-vob.238802/]]></link>
                <description><![CDATA[<article>
<blockquote class="messageText SelectQuoteContainer ugc baseHtml">
Request by <a href="https://sharemania.us/members/54987/" class="username" data-user="54987, @Artik">@Artik</a> <br>
<br>
<img src="https://i.imgur.com/kiui2Di.jpeg" class="bbCodeImage LbImage" alt="[​IMG]" data-url="https://i.imgur.com/kiui2Di.jpeg" style=""> <br>
<br>
<div class="bbCodeBlock bbCodeCode">
<div class="type">Code:</div>
<pre>Format                         : MPEG-PS
File size                      : 95.9 MiB
Duration                       : 2mn 40s
Overall bit rate mode          : Variable
Overall bit rate               : 5 014 Kbps
Writing library                : http://vip-files.net

Video
ID                             : 224 (0xE0)
Format                         : MPEG Video
Format version                 : Version 2
Format profile                 : Main@Main
Format settings, BVOP          : No
Format settings, Matrix        : Custom
Format settings, GOP           : Variable
Duration                       : 2mn 40s
Bit rate mode                  : Variable
Bit rate                       : 4 658 Kbps
Maximum bit rate               : 9 800 Kbps
Width                          : 720 pixels
Height                         : 576 pixels
Display aspect ratio           : 4:3
Frame rate                     : 25.000 fps
Standard                       : PAL
Color space                    : YUV
Chroma subsampling             : 4:2:0
Bit depth                      : 8 bits
Scan type                      : Interlaced
Scan order                     : Top Field First
Compression mode               : Lossy
Bits/(Pixel*Frame)             : 0.449
Time code of first frame       : 00:00:00:00
Time code source               : Group of pictures header
Stream size                    : 89.0 MiB (93%)
Source encoded stream size     : http://vip-files.net
Writing library                : http://vip-files.net
Color primaries                : BT.601 PAL
Transfer characteristics       : BT.470 System B, BT.470 System G
Matrix coefficients            : BT.601

Audio
ID                             : 189 (0xBD)-128 (0x80)
Format                         : AC-3
Format/Info                    : Audio Coding 3
Mode extension                 : CM (complete main)
Format settings, Endianness    : Big
Muxing mode                    : DVD-Video
Duration                       : 2mn 40s
Bit rate mode                  : Constant
Bit rate                       : 256 Kbps
Channel(s)                     : 2 channels
Channel positions              : Front: L R
Sampling rate                  : 48.0 KHz
Bit depth                      : 16 bits
Compression mode               : Lossy
Stream size                    : 4.89 MiB (5%)</pre>
</div>
<div class="bbCodeBlock bbCodeVfcHH HiddenContent">
<div class="attribution type">Hidden Content:</div>
<blockquote>You must reply before you can see the hidden data contained here.</blockquote>
</div>
<div class="messageTextEndMarker">&nbsp;</div>
</blockquote>
</article>]]></description>
                <author><![CDATA[markitomg]]></author>
                </item>

                </channel></rss>